<svg width="72" height="72" viewBox="0 0 72 72" fill="none" xmlns="http://www.w3.org/2000/svg">
<circle cx="36" cy="36" r="36" fill="#F61067" fill-opacity="0.02"/>
<circle cx="36" cy="36" r="35.5" stroke="#F61067" stroke-opacity="0.5"/>
<path d="M48.7637 35.4241L44.1632 28.0004C44.0294 27.8004 43.8147 27.7 43.6 27.7C43.3852 27.7 43.1705 27.8004 43.0368 28.0004L38.4362 35.4241C38.273 35.6679 38.1793 35.9607 38.2038 36.2526C38.4346 39.0231 40.7624 41.1999 43.6 41.1999C46.4375 41.1999 48.7654 39.0231 48.9961 36.2526C49.0206 35.9607 48.927 35.6679 48.7637 35.4241ZM43.6 39.8499C41.8458 39.8499 40.3283 38.7054 39.7702 37.1499H47.4145C46.8484 38.7206 45.3415 39.8499 43.6 39.8499ZM39.7917 35.8L43.6017 29.6507L47.4382 35.8H39.7917ZM44.6125 45.2499H36.175V30.3046C37.1154 30.0612 37.8503 29.3288 38.0996 28.391L44.3555 26.2977C44.5323 26.2386 44.6276 26.0471 44.5686 25.8707L44.3543 25.2308C44.2952 25.054 44.1037 24.9587 43.9273 25.0177L38.0878 26.9714C37.7684 25.8366 36.7369 25 35.5 25C34.0087 25 32.8 26.2087 32.8 27.7C32.8 28.0463 32.8705 28.3741 32.9915 28.6766L26.6445 30.8003C26.4677 30.8594 26.3724 31.0509 26.4314 31.2273L26.6457 31.8673C26.7048 32.044 26.8963 32.1394 27.0727 32.0803L33.8416 29.8157C34.1293 30.0418 34.4605 30.2097 34.8254 30.3042V46.2624C34.8254 46.4489 34.9765 46.5999 35.1629 46.5999H44.6129C44.7994 46.5999 44.9504 46.4489 44.9504 46.2624V45.5874C44.95 45.4009 44.7989 45.2499 44.6125 45.2499ZM34.15 27.7C34.15 26.9558 34.7558 26.35 35.5 26.35C36.2442 26.35 36.85 26.9558 36.85 27.7C36.85 28.4442 36.2442 29.05 35.5 29.05C34.7558 29.05 34.15 28.4442 34.15 27.7ZM27.9632 33.4003C27.8295 33.1999 27.6148 33.1 27.4 33.1C27.1853 33.1 26.9706 33.2004 26.8368 33.4003L22.2363 40.824C22.073 41.0679 21.9794 41.3607 22.0039 41.6526C22.2346 44.423 24.5625 46.5999 27.4 46.5999C30.2376 46.5999 32.5655 44.423 32.7962 41.6526C32.8207 41.3607 32.727 41.0679 32.5638 40.824L27.9632 33.4003ZM27.4 45.2499C25.6459 45.2499 24.1284 44.1054 23.5703 42.5499H31.2146C30.6485 44.1206 29.1415 45.2499 27.4 45.2499ZM23.5918 41.1999L27.4017 35.0507L31.2382 41.1999H23.5918Z" fill="#F61067"/>
</svg>
