<svg width="72" height="72" viewBox="0 0 72 72" fill="none" xmlns="http://www.w3.org/2000/svg">
<circle cx="36" cy="36" r="36" fill="#F61067" fill-opacity="0.02"/>
<circle cx="36" cy="36" r="35.5" stroke="#F61067" stroke-opacity="0.5"/>
<path d="M47.2951 34.4293C48.1642 31.7264 46.2985 29.8056 45.2572 29.2026C45.3897 27.3334 43.9737 25.5139 41.9477 25.2622C41.3546 23.9048 40.0066 23 38.4889 23C37.2684 23 36.1929 23.5881 35.5 24.484C34.8071 23.5881 33.7316 23 32.5111 23C30.9934 23 29.6454 23.9048 29.0518 25.2622C27.0258 25.5139 25.6098 27.3334 25.7423 29.2026C24.701 29.8061 22.8358 31.7264 23.7044 34.4293C22.6398 35.28 22 36.5715 22 37.9393C22 39.5638 22.8641 41.0354 24.2464 41.837C24.1332 44.2283 26.0674 46.2389 28.4621 46.1773C29.1689 47.5362 30.576 48.4118 32.1374 48.4118C33.5222 48.4118 34.7436 47.7268 35.5 46.6865C36.2564 47.7268 37.4778 48.4118 38.8626 48.4118C40.424 48.4118 41.8311 47.5362 42.5379 46.1773C44.9326 46.2389 46.8663 44.2278 46.7536 41.837C48.1359 41.0354 49 39.5638 49 37.9393C49 36.5715 48.3602 35.28 47.2951 34.4293ZM34.7029 29.8527C34.7029 31.1476 33.8065 32.2291 32.601 32.5349C32.4288 32.5785 32.3116 32.7379 32.3116 32.9151V33.7181C32.3116 33.9697 32.5444 34.1603 32.7921 34.1097C33.5083 33.9638 34.1589 33.6427 34.7029 33.197V44.2675C34.7029 45.6765 33.5524 46.8235 32.1374 46.8235C30.5546 46.8235 29.9422 45.741 29.5019 44.4312C28.6934 44.5672 28.5942 44.5901 28.4011 44.5901C26.9861 44.5901 25.8356 43.4431 25.8356 42.034C25.8356 41.7258 25.8783 41.5804 26.0177 40.894C24.7551 40.3728 23.5937 39.6924 23.5937 37.9393C23.5937 36.2588 24.7357 35.6091 25.7234 35.0438C25.0981 33.7677 25.0881 33.5945 25.0881 33.1002C25.0881 31.4172 26.1751 30.695 27.5385 30.1376C27.4139 29.5966 27.33 29.3132 27.33 29.0055C27.33 27.8074 28.3028 26.8316 29.5873 26.8316H29.6076L30.2395 26.845C30.5328 25.706 30.9854 24.5882 32.5111 24.5882C33.7192 24.5882 34.7029 25.5675 34.7029 26.7721V29.8527ZM44.9823 40.894C45.1217 41.5804 45.1644 41.7258 45.1644 42.034C45.1644 43.4431 44.0139 44.5901 42.5989 44.5901C42.4063 44.5901 42.3071 44.5672 41.4981 44.4312C41.0578 45.741 40.4454 46.8235 38.8626 46.8235C37.4476 46.8235 36.2971 45.6765 36.2971 44.2675V33.197C36.8411 33.6427 37.4917 33.9638 38.2079 34.1097C38.4556 34.1603 38.6884 33.9697 38.6884 33.7181V32.9151C38.6884 32.7379 38.5712 32.5785 38.399 32.5349C37.1935 32.2291 36.2971 31.1476 36.2971 29.8527V26.7721C36.2971 25.5675 37.2808 24.5882 38.4889 24.5882C40.0146 24.5882 40.4672 25.706 40.76 26.845L41.3919 26.8316H41.4122C42.6967 26.8316 43.6695 27.8074 43.6695 29.0055C43.6695 29.3132 43.5851 29.5971 43.461 30.1376C44.8239 30.6945 45.9114 31.4172 45.9114 33.1002C45.9114 33.5945 45.9015 33.7677 45.2761 35.0438C46.2638 35.6091 47.4058 36.2588 47.4058 37.9393C47.4058 39.6928 46.2449 40.3733 44.9823 40.894Z" fill="#F61067"/>
</svg>
